<mxfile host="app.diagrams.net" modified="2023-10-28T14:07:11.281Z" agent="Mozilla/5.0 (Macintosh; Intel Mac OS X 10_15_7) AppleWebKit/537.36 (KHTML, like Gecko) Chrome/118.0.0.0 Safari/537.36" version="22.0.8" etag="tYMucGDojCcpL3fTgChp" type="github">
  <diagram name="Page-1" id="fnKwL7ELG-vZsLuJ30ks">
    <mxGraphModel>
      <root>
        <mxCell id="0" />
        <mxCell id="1" parent="0" />
      </root>
    </mxGraphModel>
  </diagram>
</mxfile>
